<svg xmlns="http://www.w3.org/2000/svg" xmlns:svg="http://www.w3.org/2000/svg" xmlns:xlink="http://www.w3.org/1999/xlink" version="1.0" height="740pt" width="1235pt" viewBox="15 242 1243 746" ><defs><style type="text/css">
            @font-face {
                font-family: 'noto_regular';
                src: url('https://app.creately.com/diagram/assets/fonts/noto/noto-regular.woff') format('woff'),
                     url('https://app.creately.com/diagram/assets/fonts/noto/noto-regular.woff2') format('woff2');
                font-weight: normal;
                font-style: normal;
            }
        p {
            margin: 0;
        }
        </style></defs><defs><style>
            span{ display: inline-block; }
        </style></defs><g id="26b8dh9qiy"><g transform="translate(170 520)"><rect x="0" y="0" width="100" height="50" fill="rgba(255,255,255,1)" stroke="#8db71b" stroke-width="2" stroke-linecap="round" stroke-linejoin="round"/></g><g transform="translate(184.5, 527.5) rotate(0, 35.5, 17.5)" width="71" height="35"><text text-decoration="none" x="3.5" fill="rgb(117, 160, 0)" font-weight="bold" font-size="10pt" font-family="Arial"  y="14">Customer</text><text text-decoration="none" x="67.5" fill="rgb(117, 160, 0)" font-weight="bold" font-size="10pt" font-family="Arial"  y="14"></text><text text-decoration="none" x="35.5" fill="#4b4b4b" font-size="10pt" font-family="noto_regular"  y="36"></text></g></g><g id="b3owlslgcr"><g transform="translate(20 540)"><ellipse cx="50" cy="25" rx="50" ry="25" fill="rgba(255,255,255,1)" stroke="#5e5ca7" stroke-width="1.5" stroke-linecap="round" stroke-linejoin="round"/></g><g transform="translate(32, 555.5) rotate(0, 38, 9.5)" width="76" height="19"><text text-decoration="none" x="3.5" fill="rgb(0, 0, 0)" font-weight="bold" font-size="10pt" font-family="Arial"  y="17">FirstName</text><text text-decoration="none" x="72.5" fill="#4b4b4b" font-size="10pt" font-family="noto_regular"  y="17"></text></g></g><g id="1ghe272e2u"><g transform="translate(60 595)"><ellipse cx="50" cy="25" rx="50" ry="25" fill="rgba(255,255,255,1)" stroke="#5e5ca7" stroke-width="1.5" stroke-linecap="round" stroke-linejoin="round"/></g><g transform="translate(73, 610.5) rotate(0, 37, 9.5)" width="74" height="19"><text text-decoration="none" x="3.5" fill="rgb(0, 0, 0)" font-weight="bold" font-size="10pt" font-family="Arial"  y="17">LastName</text><text text-decoration="none" x="70.5" fill="#4b4b4b" font-size="10pt" font-family="noto_regular"  y="17"></text></g></g><g id="1v6yoopcce"><g transform="translate(190 450)"><ellipse cx="50" cy="25" rx="50" ry="25" fill="rgba(255,255,255,1)" stroke="#5e5ca7" stroke-width="1.5" stroke-linecap="round" stroke-linejoin="round"/></g><g transform="translate(224, 465.5) rotate(0, 16, 9.5)" width="32" height="19"><text text-decoration="none" x="1.5" fill="rgb(0, 0, 0)" font-weight="bold" font-size="10pt" font-family="Arial"  y="17">DOB</text><text text-decoration="none" x="30.5" fill="#4b4b4b" font-size="10pt" font-family="noto_regular"  y="17"></text></g></g><g id="9ire5ferea"><g transform="translate(170 610)"><ellipse cx="47.49999940395355" cy="25" rx="47.49999940395355" ry="25" fill="rgba(255,255,255,1)" stroke="#5e5ca7" stroke-width="1.5" stroke-linecap="round" stroke-linejoin="round"/></g><g transform="translate(187.99999940395355, 625.5) rotate(0, 29.5, 9.5)" width="59" height="19"><text text-decoration="none" x="4" fill="rgb(0, 0, 0)" font-weight="bold" font-size="10pt" font-family="Arial"  y="17">Address</text><text text-decoration="none" x="55" fill="#4b4b4b" font-size="10pt" font-family="noto_regular"  y="17"></text></g></g><g id="1nswyw8mss"><g transform="translate(345 475)"><ellipse cx="50" cy="25" rx="50" ry="25" fill="rgba(255,255,255,1)" stroke="#5e5ca7" stroke-width="1.5" stroke-linecap="round" stroke-linejoin="round"/></g><g transform="translate(352, 490.5) rotate(0, 43, 9.5)" width="86" height="19"><text text-decoration="none" x="2.5" fill="rgb(0, 0, 0)" font-weight="bold" font-size="10pt" font-family="Arial"  y="17">PhnNumber</text><text text-decoration="none" x="83.5" fill="#4b4b4b" font-size="10pt" font-family="noto_regular"  y="17"></text></g></g><g id="6t0b6ru2o6"><g transform="translate(300 420)"><ellipse cx="50" cy="25" rx="50" ry="25" fill="rgba(255,255,255,1)" stroke="#5e5ca7" stroke-width="1.5" stroke-linecap="round" stroke-linejoin="round"/></g><g transform="translate(330, 435.5) rotate(0, 20, 9.5)" width="40" height="19"><text text-decoration="none" x="2" fill="rgb(0, 0, 0)" font-weight="bold" font-size="10pt" font-family="Arial"  y="17">Email</text><text text-decoration="none" x="38" fill="#4b4b4b" font-size="10pt" font-family="noto_regular"  y="17"></text></g></g><g id="4iod5hlz34"><g transform="translate(305 540)"><ellipse cx="50" cy="25" rx="50" ry="25" fill="rgba(255,255,255,1)" stroke="#956642" stroke-width="2" stroke-linecap="round" stroke-linejoin="round" stroke-dasharray="5 5"/></g><g transform="translate(318.5, 555.5) rotate(0, 36.5, 9.5)" width="73" height="19"><text text-decoration="underline" x="4" fill="rgb(75, 51, 33)" font-weight="bold" font-size="10pt" font-family="Arial"  y="17">registerID</text><text text-decoration="none" x="69" fill="#4b4b4b" font-size="10pt" font-family="noto_regular"  y="17"></text></g></g><g id="11u22y5l6t"><g transform="translate(25 475)"><ellipse cx="50" cy="25" rx="50" ry="25" fill="rgba(255,255,255,1)" stroke="#ee1d24" stroke-width="2" stroke-linecap="round" stroke-linejoin="round"/></g><g transform="translate(31.5, 490.5) rotate(0, 43.5, 9.5)" width="87" height="19"><text text-decoration="underline" x="4.5" fill="rgb(191, 42, 47)" font-weight="bold" font-size="10pt" font-family="Arial"  y="17">CustomerID</text><text text-decoration="none" x="82.5" fill="#4b4b4b" font-size="10pt" font-family="noto_regular"  y="17"></text></g></g><g id="2364pmrwcn"><g transform="translate(1020 405)"><rect x="0" y="0" width="100" height="50" fill="rgba(255,255,255,1)" stroke="#8db71b" stroke-width="2" stroke-linecap="round" stroke-linejoin="round"/></g><g transform="translate(1036.5, 420.5) rotate(0, 33.5, 9.5)" width="67" height="19"><text text-decoration="none" x="3.5" fill="rgb(117, 160, 0)" font-weight="bold" font-size="10pt" font-family="Arial"  y="17">Suppliers</text><text text-decoration="none" x="63.5" fill="#4b4b4b" font-size="10pt" font-family="noto_regular"  y="17"></text></g></g><g id="6xg082n4k4"><g transform="translate(725 305)"><ellipse cx="50" cy="25" rx="50" ry="25" fill="rgba(255,255,255,1)" stroke="#956642" stroke-width="2" stroke-linecap="round" stroke-linejoin="round" stroke-dasharray="5 5"/></g><g transform="translate(731.5, 320.5) rotate(0, 43.5, 9.5)" width="87" height="19"><text text-decoration="underline" x="4.5" fill="rgb(75, 51, 33)" font-weight="bold" font-size="10pt" font-family="Arial"  y="17">CustomerID</text><text text-decoration="none" x="82.5" fill="#4b4b4b" font-size="10pt" font-family="noto_regular"  y="17"></text></g></g><g id="2hssioyuhv"><g transform="translate(485 380)"><ellipse cx="50" cy="25" rx="50" ry="25" fill="rgba(255,255,255,1)" stroke="#956642" stroke-width="2" stroke-linecap="round" stroke-linejoin="round" stroke-dasharray="5 5"/></g><g transform="translate(500, 395.5) rotate(0, 35, 9.5)" width="70" height="19"><text text-decoration="underline" x="3" fill="rgb(75, 51, 33)" font-weight="bold" font-size="10pt" font-family="Arial"  y="17">SupplierD</text><text text-decoration="none" x="67" fill="#4b4b4b" font-size="10pt" font-family="noto_regular"  y="17"></text></g></g><g id="2kpqpcvoq1"><g transform="translate(485 310)"><ellipse cx="50" cy="22.499999403953552" rx="50" ry="22.499999403953552" fill="rgba(255,255,255,1)" stroke="#956642" stroke-width="2" stroke-linecap="round" stroke-linejoin="round" stroke-dasharray="5 5"/></g><g transform="translate(510, 314.99999940395355) rotate(0, 25, 17.5)" width="50" height="35"><text text-decoration="underline" x="2.5" fill="rgb(75, 51, 33)" font-weight="bold" font-size="10pt" font-family="Arial"  y="14">ItemID</text><text text-decoration="underline" x="47.5" fill="rgb(75, 51, 33)" font-weight="bold" font-size="10pt" font-family="Arial"  y="14"></text><text text-decoration="none" x="25" fill="#4b4b4b" font-size="10pt" font-family="noto_regular"  y="36"></text></g></g><g id="1jqx2hfn3o"><g transform="translate(750 660)"><ellipse cx="50" cy="25" rx="50" ry="25" fill="rgba(255,255,255,1)" stroke="#956642" stroke-width="2" stroke-linecap="round" stroke-linejoin="round" stroke-dasharray="5 5"/></g><g transform="translate(756.5, 675.5) rotate(0, 43.5, 9.5)" width="87" height="19"><text text-decoration="underline" x="4.5" fill="rgb(75, 51, 33)" font-weight="bold" font-size="10pt" font-family="Arial"  y="17">CustomerID</text><text text-decoration="none" x="82.5" fill="#4b4b4b" font-size="10pt" font-family="noto_regular"  y="17"></text></g></g><g id="8656m2hewo"><g transform="translate(760 580)"><ellipse cx="50" cy="25" rx="50" ry="25" fill="rgba(255,255,255,1)" stroke="#956642" stroke-width="2" stroke-linecap="round" stroke-linejoin="round" stroke-dasharray="5 5"/></g><g transform="translate(772.5, 595.5) rotate(0, 37.5, 9.5)" width="75" height="19"><text text-decoration="underline" x="3.5" fill="rgb(75, 51, 33)" font-weight="bold" font-size="10pt" font-family="Arial"  y="17">SupplierID</text><text text-decoration="none" x="71.5" fill="#4b4b4b" font-size="10pt" font-family="noto_regular"  y="17"></text></g></g><g id="1h1t2ypkco"><g transform="translate(675 695)"><ellipse cx="50" cy="25" rx="50" ry="25" fill="rgba(255,255,255,1)" stroke="#956642" stroke-width="2" stroke-linecap="round" stroke-linejoin="round" stroke-dasharray="5 5"/></g><g transform="translate(700, 710.5) rotate(0, 25, 9.5)" width="50" height="19"><text text-decoration="underline" x="2.5" fill="rgb(75, 51, 33)" font-weight="bold" font-size="10pt" font-family="Arial"  y="17">ItemID</text><text text-decoration="none" x="47.5" fill="#4b4b4b" font-size="10pt" font-family="noto_regular"  y="17"></text></g></g><g id="1bg59aeebn"><g transform="translate(885 370)"><ellipse cx="50" cy="25" rx="50" ry="25" fill="rgba(255,255,255,1)" stroke="#956642" stroke-width="2" stroke-linecap="round" stroke-linejoin="round" stroke-dasharray="5 5"/></g><g transform="translate(910, 385.5) rotate(0, 25, 9.5)" width="50" height="19"><text text-decoration="underline" x="2.5" fill="rgb(75, 51, 33)" font-weight="bold" font-size="10pt" font-family="Arial"  y="17">ItemID</text><text text-decoration="none" x="47.5" fill="#4b4b4b" font-size="10pt" font-family="noto_regular"  y="17"></text></g></g><g id="cqjy4ijwz2"><g transform="translate(940 285)"><ellipse cx="50" cy="25" rx="50" ry="25" fill="rgba(255,255,255,1)" stroke="#ee1d24" stroke-width="2" stroke-linecap="round" stroke-linejoin="round"/></g><g transform="translate(952.5, 300.5) rotate(0, 37.5, 9.5)" width="75" height="19"><text text-decoration="underline" x="3.5" fill="rgb(191, 42, 47)" font-weight="bold" font-size="10pt" font-family="Arial"  y="17">SupplierID</text><text text-decoration="none" x="71.5" fill="#4b4b4b" font-size="10pt" font-family="noto_regular"  y="17"></text></g></g><g id="2h9gg0t01h"><g transform="translate(910 445)"><ellipse cx="50" cy="25" rx="50" ry="25" fill="rgba(255,255,255,1)" stroke="#5e5ca7" stroke-width="1.5" stroke-linecap="round" stroke-linejoin="round"/></g><g transform="translate(930.5, 460.5) rotate(0, 29.5, 9.5)" width="59" height="19"><text text-decoration="none" x="3" fill="rgb(0, 0, 0)" font-weight="bold" font-size="10pt" font-family="Arial"  y="17">NetCost</text><text text-decoration="none" x="56" fill="#4b4b4b" font-size="10pt" font-family="noto_regular"  y="17"></text></g></g><g id="1qhbunrkuc"><g transform="translate(1040 250)"><ellipse cx="50" cy="25" rx="50" ry="25" fill="rgba(255,255,255,1)" stroke="#5e5ca7" stroke-width="1.5" stroke-linecap="round" stroke-linejoin="round"/></g><g transform="translate(1068.5, 265.5) rotate(0, 21.5, 9.5)" width="43" height="19"><text text-decoration="none" x="1.5" fill="rgb(0, 0, 0)" font-weight="bold" font-size="10pt" font-family="Arial"  y="17">Name</text><text text-decoration="none" x="41.5" fill="#4b4b4b" font-size="10pt" font-family="noto_regular"  y="17"></text></g></g><g id="7v9htzo4ji"><g transform="translate(1150 370)"><ellipse cx="50" cy="25" rx="50" ry="25" fill="rgba(255,255,255,1)" stroke="#5e5ca7" stroke-width="1.5" stroke-linecap="round" stroke-linejoin="round"/></g><g transform="translate(1166.5, 385.5) rotate(0, 33.5, 9.5)" width="67" height="19"><text text-decoration="none" x="2.5" fill="rgb(0, 0, 0)" font-weight="bold" font-size="10pt" font-family="Arial"  y="17">UnitPrice</text><text text-decoration="none" x="64.5" fill="#4b4b4b" font-size="10pt" font-family="noto_regular"  y="17"></text></g></g><g id="7p1k87j2cs"><g transform="translate(1125 310)"><ellipse cx="50" cy="25" rx="50" ry="25" fill="rgba(255,255,255,1)" stroke="#5e5ca7" stroke-width="1.5" stroke-linecap="round" stroke-linejoin="round"/></g><g transform="translate(1145.5, 325.5) rotate(0, 29.5, 9.5)" width="59" height="19"><text text-decoration="none" x="4" fill="rgb(0, 0, 0)" font-weight="bold" font-size="10pt" font-family="Arial"  y="17">Address</text><text text-decoration="none" x="55" fill="#4b4b4b" font-size="10pt" font-family="noto_regular"  y="17"></text></g></g><g id="1ybjjv99rw"><g transform="translate(1155 420)"><ellipse cx="50" cy="25" rx="50" ry="25" fill="rgba(255,255,255,1)" stroke="#5e5ca7" stroke-width="1.5" stroke-linecap="round" stroke-linejoin="round"/></g><g transform="translate(1173, 435.5) rotate(0, 32, 9.5)" width="64" height="19"><text text-decoration="none" x="2.5" fill="rgb(0, 0, 0)" font-weight="bold" font-size="10pt" font-family="Arial"  y="17">Discount</text><text text-decoration="none" x="61.5" fill="#4b4b4b" font-size="10pt" font-family="noto_regular"  y="17"></text></g></g><g id="2aexle8zwd"><g><path d="M 170,545 L 120,565" fill="none" stroke="#5e5ca7" stroke-width="1.5" stroke-linecap="round" stroke-linejoin="round"/></g></g><g id="1uml5qik3z"><g><path d="M 235,525 L 235,510 L 237.5,510 L 240,510 L 240,500" fill="none" stroke="#5e5ca7" stroke-width="1.5" stroke-linecap="round" stroke-linejoin="round"/></g></g><g id="8gmuo36cof"><g><path d="M 205,610 L 205,590 L 200,590 L 195,590 L 195,570" fill="none" stroke="#5e5ca7" stroke-width="1.5" stroke-linecap="round" stroke-linejoin="round"/></g></g><g id="2qbz437ki5"><g><path d="M 345,500 L 306,500 L 306,522.5 L 306,545 L 270,545" fill="none" stroke="#5e5ca7" stroke-width="1.5" stroke-linecap="round" stroke-linejoin="round"/></g></g><g id="fqpv77jpc8"><g><path d="M 140,600 L 140,565 L 170,565" fill="none" stroke="#5e5ca7" stroke-width="1.5" stroke-linecap="round" stroke-linejoin="round"/></g></g><g id="56w9x2zsqs"><g><path d="M 320,465 L 320,530 L 270,530" fill="none" stroke="#5e5ca7" stroke-width="1.5" stroke-linecap="round" stroke-linejoin="round"/></g></g><g id="2b1ihwbx2p"><g><path d="M 305,565 L 270,565" fill="none" stroke="#5e5ca7" stroke-width="1.5" stroke-linecap="round" stroke-linejoin="round"/></g></g><g id="2mwiyqb7bp"><g><path d="M 170,530 L 147.5,530 L 147.5,515 L 147.5,500 L 125,500" fill="none" stroke="#5e5ca7" stroke-width="1.5" stroke-linecap="round" stroke-linejoin="round"/></g></g><g id="g0o3mx3bts"><g><path d="M 596,330 L 585,330" fill="none" stroke="#5e5ca7" stroke-width="1.5" stroke-linecap="round" stroke-linejoin="round"/></g></g><g id="8v05xtsdbi"><g><path d="M 647,335 L 647,352.083335518837 L 647,352.083335518837 L 647,352.083335518837 L 611,356.0416677594185 L 575,360 L 535,405" fill="none" stroke="#5e5ca7" stroke-width="1.5" stroke-linecap="round" stroke-linejoin="round"/></g></g><g id="2hu0ysc95d"><mask id="41b3f" x="682" y="537" width="91" height="81" maskUnits="userSpaceOnUse"><rect x="682" y="537" width="91" height="81" fill="white" /><rect x="724" y="542.5" width="32" height="25" fill="black" /></mask><g mask="url(#41b3f)"><path d="M 695,570 L 695,550 L 717.5,550 L 740,550 L 740,577.5 L 740,605 L 760,605" fill="none" stroke="#5e5ca7" stroke-width="1.5" stroke-linecap="round" stroke-linejoin="round"/></g><g transform="translate(727, 545.5)" width="26" height="19"><text text-decoration="none" x="1" fill="rgb(75, 75, 75)" font-size="10pt" font-family="Lato"  y="17">text</text><text text-decoration="none" x="25" fill="#4b4b4b" font-size="10pt" font-family="noto_regular"  y="17"></text></g></g><g id="125pmtx95y"><g><path d="M 720,595 L 770,595 L 770,665" fill="none" stroke="#5e5ca7" stroke-width="1.5" stroke-linecap="round" stroke-linejoin="round"/></g></g><g id="4rvzps3dlu"><g><path d="M 1070,405 L 1070,352.5 L 1072.5,352.5 L 1075,352.5 L 1075,300" fill="none" stroke="#5e5ca7" stroke-width="1.5" stroke-linecap="round" stroke-linejoin="round"/></g></g><g id="29ni7383jk"><g><path d="M 1020,430 L 1002.5,430 L 1002.5,412.5 L 1002.5,395 L 985,395" fill="none" stroke="#5e5ca7" stroke-width="1.5" stroke-linecap="round" stroke-linejoin="round"/></g></g><g id="2lx673on2k"><g><path d="M 1005,335 L 1005,370 L 1015,370 L 1025,370 L 1025,405" fill="none" stroke="#5e5ca7" stroke-width="1.5" stroke-linecap="round" stroke-linejoin="round"/></g></g><g id="2l0tcqg9sq"><g><path d="M 1120,430 L 1135,430 L 1135,412.5 L 1135,395 L 1150,395" fill="none" stroke="#5e5ca7" stroke-width="1.5" stroke-linecap="round" stroke-linejoin="round"/></g></g><g id="3mcsz80676"><g><path d="M 1110,405 L 1110,382.5 L 1127.5,382.5 L 1145,382.5 L 1145,355" fill="none" stroke="#5e5ca7" stroke-width="1.5" stroke-linecap="round" stroke-linejoin="round"/></g></g><g id="21av5yyhks"><g><path d="M 1030,455 L 1030,475 L 1022.5,475 L 1015,475 L 1015,472.5 L 1015,470 L 1010,470" fill="none" stroke="#5e5ca7" stroke-width="1.5" stroke-linecap="round" stroke-linejoin="round"/></g></g><g id="viyf8kkk6l"><g transform="translate(210 735)"><ellipse cx="50" cy="25" rx="50" ry="25" fill="rgba(255,255,255,1)" stroke="#5e5ca7" stroke-width="1.5" stroke-linecap="round" stroke-linejoin="round"/></g><g transform="translate(229, 750.5) rotate(0, 31, 9.5)" width="62" height="19"><text text-decoration="none" x="1.5" fill="rgb(0, 0, 0)" font-weight="bold" font-size="10pt" font-family="Arial"  y="17">Quantity</text><text text-decoration="none" x="60.5" fill="#4b4b4b" font-size="10pt" font-family="noto_regular"  y="17"></text></g></g><g id="24nov6l0t2"><g transform="translate(105 820)"><ellipse cx="50" cy="25" rx="50" ry="25" fill="rgba(255,255,255,1)" stroke="#5e5ca7" stroke-width="1.5" stroke-linecap="round" stroke-linejoin="round"/></g><g transform="translate(116.5, 835.5) rotate(0, 38.5, 9.5)" width="77" height="19"><text text-decoration="none" x="3" fill="rgb(0, 0, 0)" font-weight="bold" font-size="10pt" font-family="Arial"  y="17">ItemName</text><text text-decoration="none" x="74" fill="#4b4b4b" font-size="10pt" font-family="noto_regular"  y="17"></text></g></g><g id="1dape5kqxj"><g transform="translate(320 860)"><ellipse cx="50" cy="25" rx="50" ry="25" fill="rgba(255,255,255,1)" stroke="#ee1d24" stroke-width="2" stroke-linecap="round" stroke-linejoin="round"/></g><g transform="translate(345, 875.5) rotate(0, 25, 9.5)" width="50" height="19"><text text-decoration="underline" x="2.5" fill="rgb(191, 42, 47)" font-weight="bold" font-size="10pt" font-family="Arial"  y="17">ItemID</text><text text-decoration="none" x="47.5" fill="#4b4b4b" font-size="10pt" font-family="noto_regular"  y="17"></text></g></g><g id="2bc6c177vm"><g transform="translate(95 745)"><ellipse cx="50" cy="25" rx="50" ry="25" fill="rgba(255,255,255,1)" stroke="#5e5ca7" stroke-width="1.5" stroke-linecap="round" stroke-linejoin="round"/></g><g transform="translate(126.5, 760.5) rotate(0, 18.5, 9.5)" width="37" height="19"><text text-decoration="none" x="2" fill="rgb(0, 0, 0)" font-weight="bold" font-size="10pt" font-family="Arial"  y="17">Price</text><text text-decoration="none" x="35" fill="#4b4b4b" font-size="10pt" font-family="noto_regular"  y="17"></text></g></g><g id="889ni8g84k"><g><path d="M 290,805 L 241,805 L 241,799 L 241,793 L 221,793 L 201,793 L 201,781.5 L 201,770 L 195,770" fill="none" stroke="#5e5ca7" stroke-width="1.5" stroke-linecap="round" stroke-linejoin="round"/></g></g><g id="24po1det3h"><g><path d="M 290,780 L 290,790 L 297.5,790 L 305,790 L 305,795" fill="none" stroke="#5e5ca7" stroke-width="1.5" stroke-linecap="round" stroke-linejoin="round"/></g></g><g id="5lpsw37dx1"><g><path d="M 205,845 L 247.5,845 L 247.5,852.5 L 247.5,860 L 276.25,860 L 305,860 L 305,840" fill="none" stroke="#5e5ca7" stroke-width="1.5" stroke-linecap="round" stroke-linejoin="round"/></g></g><g id="29x2uu6ofe"><g transform="translate(505 455)"><path d="M 126,31.5 L 63.5,62.9 L 1,31.5 L 63.5,0.3 Z" fill="rgb(232, 248, 250)" stroke="rgb(122, 200, 255)" stroke-width="2" vector-effect="non-scaling-stroke" stroke-dasharray=""/></g><g transform="translate(527.7987421383648, 464.57278481012656) rotate(0, 0, 0)" width="40" height="19"><text text-decoration="none" x="0" fill="#3004987" font-weight="bold" font-size="11pt" font-family="Arial"  y="17">bills&#160;</text><text text-decoration="none" x="36" fill="#4b4b4b" font-size="10pt" font-family="noto_regular"  y="17"></text></g></g><g id="29jihri5ix"><g><path d="M 605,480 L 661,355" fill="none" stroke="#5e5ca7" stroke-width="1.5" stroke-linecap="round" stroke-linejoin="round"/></g></g><g id="4og2tlpxl4"><g transform="translate(490 580)"><path d="M 126,31.5 L 63.5,62.9 L 1,31.5 L 63.5,0.3 Z" fill="rgb(232, 248, 250)" stroke="rgb(122, 200, 255)" stroke-width="2" vector-effect="non-scaling-stroke" stroke-dasharray=""/></g><g transform="translate(501.47798742138366, 589.5727848101266) rotate(0, 0, 0)" width="77" height="19"><text text-decoration="none" x="0" fill="#3004987" font-weight="bold" font-size="11pt" font-family="Arial"  y="17">Includes&#160;</text><text text-decoration="none" x="68" fill="#4b4b4b" font-size="10pt" font-family="noto_regular"  y="17"></text></g></g><g id="9gsu4aety9"><g><path d="M 390,820 L 461,705.5 L 490,605" fill="none" stroke="#5e5ca7" stroke-width="1.5" stroke-linecap="round" stroke-linejoin="round"/></g></g><g id="7c4ndoms9t"><g><path d="M 590,605 L 640,570" fill="none" stroke="#5e5ca7" stroke-width="1.5" stroke-linecap="round" stroke-linejoin="round"/></g></g><g id="5dfw6002np"><g transform="translate(730 430)"><path d="M 126,31.5 L 63.5,62.9 L 1,31.5 L 63.5,0.3 Z" fill="rgb(232, 248, 250)" stroke="rgb(122, 200, 255)" stroke-width="2" vector-effect="non-scaling-stroke" stroke-dasharray=""/></g><g transform="translate(739.5125786163522, 439.57278481012656) rotate(0, 0, 0)" width="76" height="19"><text text-decoration="none" x="0" fill="#3004987" font-weight="bold" font-size="11pt" font-family="Arial"  y="17">supplies&#160;</text><text text-decoration="none" x="67" fill="#4b4b4b" font-size="10pt" font-family="noto_regular"  y="17"></text></g></g><g id="3g1f7lhxkp"><g transform="translate(205 245)"><rect x="0" y="0" width="100" height="55.000001192092896" fill="rgba(255,255,255,1)" stroke="#8db71b" stroke-width="2" stroke-linecap="round" stroke-linejoin="round"/></g><g transform="translate(224.5, 263.00000059604645) rotate(0, 30.5, 9.5)" width="61" height="19"><text text-decoration="none" x="3.5" fill="rgb(117, 160, 0)" font-weight="bold" font-size="10pt" font-family="Arial"  y="17">Register</text><text text-decoration="none" x="57.5" fill="#4b4b4b" font-size="10pt" font-family="noto_regular"  y="17"></text></g></g><g id="rrtg2xvjvq"><g transform="translate(90 250)"><ellipse cx="50" cy="25" rx="50" ry="25" fill="rgba(255,255,255,1)" stroke="#ee1d24" stroke-width="2" stroke-linecap="round" stroke-linejoin="round"/></g><g transform="translate(101.5, 257.5) rotate(0, 38.5, 17.5)" width="77" height="35"><text text-decoration="underline" x="4.5" fill="rgb(191, 42, 47)" font-weight="bold" font-size="10pt" font-family="Arial"  y="14">RegisterID</text><text text-decoration="underline" x="72.5" fill="rgb(191, 42, 47)" font-weight="bold" font-size="10pt" font-family="Arial"  y="14"></text><text text-decoration="none" x="38.5" fill="#4b4b4b" font-size="10pt" font-family="noto_regular"  y="36"></text></g></g><g id="1eq63fqw0n"><g transform="translate(330 250)"><ellipse cx="50" cy="25" rx="50" ry="25" fill="rgba(255,255,255,1)" stroke="#956642" stroke-width="2" stroke-linecap="round" stroke-linejoin="round" stroke-dasharray="5 5"/></g><g transform="translate(336.5, 265.5) rotate(0, 43.5, 9.5)" width="87" height="19"><text text-decoration="underline" x="4.5" fill="rgb(75, 51, 33)" font-weight="bold" font-size="10pt" font-family="Arial"  y="17">CustomerID</text><text text-decoration="none" x="82.5" fill="#4b4b4b" font-size="10pt" font-family="noto_regular"  y="17"></text></g></g><g id="288gwpy0jt"><g><path d="M 205,275 L 190,275" fill="none" stroke="#5e5ca7" stroke-width="1.5" stroke-linecap="round" stroke-linejoin="round"/></g></g><g id="3of9exub8m"><g><path d="M 255,300 L 280,385" fill="none" stroke="#5e5ca7" stroke-width="1.5" stroke-linecap="round" stroke-linejoin="round"/></g></g><g id="ahful0o887"><g transform="translate(310 325)"><ellipse cx="50" cy="25" rx="50" ry="25" fill="rgba(255,255,255,1)" stroke="#5e5ca7" stroke-width="1.5" stroke-linecap="round" stroke-linejoin="round"/></g><g transform="translate(328.5, 340.5) rotate(0, 31.5, 9.5)" width="63" height="19"><text text-decoration="none" x="3.5" fill="rgb(0, 0, 0)" font-weight="bold" font-size="10pt" font-family="Arial"  y="17">RegDate</text><text text-decoration="none" x="59.5" fill="#4b4b4b" font-size="10pt" font-family="noto_regular"  y="17"></text></g></g><g id="ba4pdvdlki"><g><path d="M 330,275 L 305,275" fill="none" stroke="#5e5ca7" stroke-width="1.5" stroke-linecap="round" stroke-linejoin="round"/></g></g><g id="1lg6txjjuf"><g><path d="M 695,700 L 695,657.5 L 685,657.5 L 675,657.5 L 675,620" fill="none" stroke="#5e5ca7" stroke-width="1.5" stroke-linecap="round" stroke-linejoin="round"/></g></g><g id="4s1ntr6893"><g><path d="M 1155,445 L 1137.5,445 L 1137.5,460 L 1137.5,475 L 1126.25,475 L 1115,475 L 1115,455" fill="none" stroke="#5e5ca7" stroke-width="1.5" stroke-linecap="round" stroke-linejoin="round"/></g></g><g id="243xegv5hd"><g transform="translate(180 360)"><path d="M 126,31.5 L 63.5,62.9 L 1,31.5 L 63.5,0.3 Z" fill="rgb(232, 248, 250)" stroke="rgb(122, 200, 255)" stroke-width="2" vector-effect="non-scaling-stroke" stroke-dasharray=""/></g><g transform="translate(191.47798742138366, 369.57278481012656) rotate(0, 0, 0)" width="75" height="19"><text text-decoration="none" x="0" fill="#3004987" font-weight="bold" font-size="11pt" font-family="Arial"  y="17">SignsUp&#160;</text><text text-decoration="none" x="63" fill="#4b4b4b" font-size="10pt" font-family="noto_regular"  y="17"></text></g></g><g id="1i9zb8exwb"><g><path d="M 1025,405 L 830,455" fill="none" stroke="#5e5ca7" stroke-width="1.5" stroke-linecap="round" stroke-linejoin="round"/></g></g><g id="5xjjiwrnzi"><g><path d="M 730,455 L 675,570" fill="none" stroke="#5e5ca7" stroke-width="1.5" stroke-linecap="round" stroke-linejoin="round"/></g></g><g id="cjkl93r4o2"><g><path d="M 180,385 L 190,520" fill="none" stroke="#5e5ca7" stroke-width="1.5" stroke-linecap="round" stroke-linejoin="round"/></g></g><g id="20o8zwswqm"><g><path d="M 300,295 L 300,312.5 L 315,312.5 L 330,312.5 L 330,330" fill="none" stroke="#5e5ca7" stroke-width="1.5" stroke-linecap="round" stroke-linejoin="round"/></g></g><g id="am82m4egpp"><g transform="translate(70 410)"><ellipse cx="50" cy="25" rx="50" ry="25" fill="rgba(255,255,255,1)" stroke="#956642" stroke-width="2" stroke-linecap="round" stroke-linejoin="round" stroke-dasharray="5 5"/></g><g transform="translate(92.5, 425.5) rotate(0, 27.5, 9.5)" width="55" height="19"><text text-decoration="underline" x="3.5" fill="rgb(75, 51, 33)" font-weight="bold" font-size="10pt" font-family="Arial"  y="17">ItemID&#160;</text><text text-decoration="none" x="51.5" fill="#4b4b4b" font-size="10pt" font-family="noto_regular"  y="17"></text></g></g><g id="3t2ks9mbh8"><g><path d="M 150,455 L 150,530 L 170,530" fill="none" stroke="#5e5ca7" stroke-width="1.5" stroke-linecap="round" stroke-linejoin="round"/></g></g><g id="2lkxhzaom2"><g transform="translate(300 700)"><ellipse cx="50" cy="25" rx="50" ry="25" fill="rgba(255,255,255,1)" stroke="#956642" stroke-width="2" stroke-linecap="round" stroke-linejoin="round" stroke-dasharray="5 5"/></g><g transform="translate(306.5, 715.5) rotate(0, 43.5, 9.5)" width="87" height="19"><text text-decoration="underline" x="4.5" fill="rgb(75, 51, 33)" font-weight="bold" font-size="10pt" font-family="Arial"  y="17">CustomerID</text><text text-decoration="none" x="82.5" fill="#4b4b4b" font-size="10pt" font-family="noto_regular"  y="17"></text></g></g><g id="277ut6u4h2"><g><path d="M 340,795 L 340,772.5 L 337.5,772.5 L 335,772.5 L 335,750" fill="none" stroke="#5e5ca7" stroke-width="1.5" stroke-linecap="round" stroke-linejoin="round"/></g></g><g id="77labg4jmk"><g transform="translate(1015 510)"><ellipse cx="50" cy="25" rx="50" ry="25" fill="rgba(255,255,255,1)" stroke="#5e5ca7" stroke-width="1.5" stroke-linecap="round" stroke-linejoin="round"/></g><g transform="translate(1033, 525.5) rotate(0, 32, 9.5)" width="64" height="19"><text text-decoration="none" x="3" fill="rgb(0, 0, 0)" font-weight="bold" font-size="10pt" font-family="Arial"  y="17">Dispatch</text><text text-decoration="none" x="61" fill="#4b4b4b" font-size="10pt" font-family="noto_regular"  y="17"></text></g></g><g id="2betjw0dbv"><g><path d="M 1080,510 L 1080,482.5 L 1087.5,482.5 L 1095,482.5 L 1095,450" fill="none" stroke="#5e5ca7" stroke-width="1.5" stroke-linecap="round" stroke-linejoin="round"/></g></g><g id="209hx9omjm"><g transform="translate(495 720)"><path d="M 126,31.5 L 63.5,62.9 L 1,31.5 L 63.5,0.3 Z" fill="rgb(232, 248, 250)" stroke="rgb(122, 200, 255)" stroke-width="2" vector-effect="non-scaling-stroke" stroke-dasharray=""/></g><g transform="translate(518.9779874213837, 729.5727848101266) rotate(0, 0, 0)" width="35" height="19"><text text-decoration="none" x="0" fill="#3004987" font-weight="bold" font-size="11pt" font-family="Arial"  y="17">has&#160;</text><text text-decoration="none" x="30" fill="#4b4b4b" font-size="10pt" font-family="noto_regular"  y="17"></text></g></g><g id="akr9t9youf"><g transform="translate(785 915)"><ellipse cx="52.49999761581421" cy="25" rx="52.49999761581421" ry="25" fill="rgba(255,255,255,1)" stroke="#5e5ca7" stroke-width="1.5" stroke-linecap="round" stroke-linejoin="round"/></g><g transform="translate(795.4999976158142, 930.5) rotate(0, 42, 9.5)" width="84" height="19"><text text-decoration="none" x="4.5" fill="rgb(0, 0, 0)" font-weight="bold" font-size="10pt" font-family="Arial"  y="17">Collectibles</text><text text-decoration="none" x="79.5" fill="#4b4b4b" font-size="10pt" font-family="noto_regular"  y="17"></text></g></g><g id="3awqakwtjq"><g transform="translate(640 935)"><ellipse cx="52.49999761581421" cy="25" rx="52.49999761581421" ry="25" fill="rgba(255,255,255,1)" stroke="#5e5ca7" stroke-width="1.5" stroke-linecap="round" stroke-linejoin="round"/></g><g transform="translate(648.9999976158142, 950.5) rotate(0, 43.5, 9.5)" width="87" height="19"><text text-decoration="none" x="6" fill="rgb(0, 0, 0)" font-weight="bold" font-size="10pt" font-family="Arial"  y="17">Accessories</text><text text-decoration="none" x="81" fill="#4b4b4b" font-size="10pt" font-family="noto_regular"  y="17"></text></g></g><g id="2h4wxl4950"><g><path d="M 595,745 L 680,795" fill="none" stroke="#5e5ca7" stroke-width="1.5" stroke-linecap="round" stroke-linejoin="round"/></g></g><g id="11n2wdl3qm"><g transform="translate(470.25 805)"><ellipse cx="77.49263048171997" cy="30.158615112304688" rx="77.49263048171997" ry="30.158615112304688" fill="rgba(255,255,255,1)" stroke="#5e5ca7" stroke-width="1.5" stroke-linecap="round" stroke-linejoin="round"/></g><g transform="translate(483.74263048171997, 825.6586151123047) rotate(0, 64, 9.5)" width="128" height="19"><text text-decoration="none" x="6" fill="rgb(0, 0, 0)" font-weight="bold" font-size="10pt" font-family="Arial"  y="17">Womens_clothing</text><text text-decoration="none" x="122" fill="#4b4b4b" font-size="10pt" font-family="noto_regular"  y="17"></text></g></g><g id="2n0rxhqvlr"><g transform="translate(511.6 875)"><ellipse cx="69.99574899673462" cy="30.158615112304688" rx="69.99574899673462" ry="30.158615112304688" fill="rgba(255,255,255,1)" stroke="#5e5ca7" stroke-width="1.5" stroke-linecap="round" stroke-linejoin="round"/></g><g transform="translate(528.5957489967346, 895.6586151123047) rotate(0, 53, 9.5)" width="106" height="19"><text text-decoration="none" x="5.5" fill="rgb(0, 0, 0)" font-weight="bold" font-size="10pt" font-family="Arial"  y="17">Mens_Clothing</text><text text-decoration="none" x="100.5" fill="#4b4b4b" font-size="10pt" font-family="noto_regular"  y="17"></text></g></g><g id="2dnd7yicvd"><g transform="translate(290 795)"><rect x="0" y="0" width="100" height="50" fill="rgba(255,255,255,1)" stroke="#8db71b" stroke-width="2" stroke-linecap="round" stroke-linejoin="round"/></g><g transform="translate(319, 810.5) rotate(0, 21, 9.5)" width="42" height="19"><text text-decoration="none" x="2.5" fill="rgb(117, 160, 0)" font-weight="bold" font-size="10pt" font-family="Arial"  y="17">Items</text><text text-decoration="none" x="39.5" fill="#4b4b4b" font-size="10pt" font-family="noto_regular"  y="17"></text></g></g><g id="dedludbkdq"><g><path d="M 270,900 L 316,900 L 316,876.5 L 316,853 L 315.5,853 L 315,853 L 315,845" fill="none" stroke="#5e5ca7" stroke-width="1.5" stroke-linecap="round" stroke-linejoin="round"/></g></g><g id="1397x9rxrt"><g><path d="M 340,865 L 340,845" fill="none" stroke="#5e5ca7" stroke-width="1.5" stroke-linecap="round" stroke-linejoin="round"/></g></g><g id="12w0x8c1pz"><g transform="translate(635 570)"><rect x="0" y="0" width="84.99999642372131" height="50" fill="rgba(255,255,255,1)" stroke="#8db71b" stroke-width="2" stroke-linecap="round" stroke-linejoin="round"/></g><g transform="translate(652.9999982118607, 585.5) rotate(0, 24.5, 9.5)" width="49" height="19"><text text-decoration="none" x="2.5" fill="rgb(117, 160, 0)" font-weight="bold" font-size="10pt" font-family="Arial"  y="17">Orders</text><text text-decoration="none" x="46.5" fill="#4b4b4b" font-size="10pt" font-family="noto_regular"  y="17"></text></g></g><g id="21wu4vefn1"><g transform="translate(550 655)"><ellipse cx="50" cy="25" rx="50" ry="25" fill="rgba(255,255,255,1)" stroke="#ee1d24" stroke-width="2" stroke-linecap="round" stroke-linejoin="round"/></g><g transform="translate(562.5, 670.5) rotate(0, 37.5, 9.5)" width="75" height="19"><text text-decoration="underline" x="3.5" fill="rgb(191, 42, 47)" font-weight="bold" font-size="10pt" font-family="Arial"  y="17">SupplierID</text><text text-decoration="none" x="71.5" fill="#4b4b4b" font-size="10pt" font-family="noto_regular"  y="17"></text></g></g><g id="2cim4ncl85"><g><path d="M 615,655 L 615,595 L 635,595" fill="none" stroke="#5e5ca7" stroke-width="1.5" stroke-linecap="round" stroke-linejoin="round"/></g></g><g id="1yxymba7gv"><g transform="translate(596 305)"><rect x="0" y="0" width="128.9901614189148" height="50" fill="rgba(255,255,255,1)" stroke="#8db71b" stroke-width="2" stroke-linecap="round" stroke-linejoin="round"/></g><g transform="translate(604.4950807094574, 320.5) rotate(0, 56, 9.5)" width="112" height="19"><text text-decoration="none" x="5" fill="rgb(117, 160, 0)" font-weight="bold" font-size="10pt" font-family="Arial"  y="17">CustomerOrder</text><text text-decoration="none" x="107" fill="#4b4b4b" font-size="10pt" font-family="noto_regular"  y="17"></text></g></g><g id="w1sbb3mlrs"><g transform="translate(585 245)"><ellipse cx="71.78571820259094" cy="25" rx="71.78571820259094" ry="25" fill="rgba(255,255,255,1)" stroke="#ee1d24" stroke-width="2" stroke-linecap="round" stroke-linejoin="round"/></g><g transform="translate(611.7857182025909, 260.5) rotate(0, 45, 9.5)" width="90" height="19"><text text-decoration="underline" x="4.5" fill="rgb(191, 42, 47)" font-weight="bold" font-size="10pt" font-family="Arial"  y="17">CustOrderID</text><text text-decoration="none" x="85.5" fill="#4b4b4b" font-size="10pt" font-family="noto_regular"  y="17"></text></g></g><g id="477awxxhf1"><g><path d="M 655,295 L 655,300 L 658,300 L 661,300 L 661,305" fill="none" stroke="#5e5ca7" stroke-width="1.5" stroke-linecap="round" stroke-linejoin="round"/></g></g><g id="acypqk8v7v"><g><path d="M 725,330 L 726,330" fill="none" stroke="#5e5ca7" stroke-width="1.5" stroke-linecap="round" stroke-linejoin="round"/></g></g><g id="2ke5vgr8k9"><g><path d="M 390,820 L 495,745" fill="none" stroke="#5e5ca7" stroke-width="1.5" stroke-linecap="round" stroke-linejoin="round"/></g></g><g id="1udlxo7q98"><g transform="translate(170 875)"><ellipse cx="50" cy="25" rx="50" ry="25" fill="rgba(255,255,255,1)" stroke="#5e5ca7" stroke-width="1.5" stroke-linecap="round" stroke-linejoin="round"/></g><g transform="translate(178.5, 882.5) rotate(0, 41.5, 17.5)" width="83" height="35"><text text-decoration="none" x="3.5" fill="rgb(0, 0, 0)" font-weight="bold" font-size="10pt" font-family="Arial"  y="14">Description</text><text text-decoration="none" x="79.5" fill="rgb(0, 0, 0)" font-weight="bold" font-size="10pt" font-family="Arial"  y="14"></text><text text-decoration="none" x="41.5" fill="#4b4b4b" font-size="10pt" font-family="noto_regular"  y="36"></text></g></g><g id="16k9ei453q"><g transform="translate(680 795)"><rect x="0" y="0" width="114.52380418777466" height="50" fill="rgba(255,255,255,1)" stroke="#8db71b" stroke-width="2" stroke-linecap="round" stroke-linejoin="round"/></g><g transform="translate(704.2619020938873, 810.5) rotate(0, 33, 9.5)" width="66" height="19"><text text-decoration="none" x="4" fill="rgb(117, 160, 0)" font-weight="bold" font-size="10pt" font-family="Arial"  y="17">Category</text><text text-decoration="none" x="62" fill="#4b4b4b" font-size="10pt" font-family="noto_regular"  y="17"></text></g></g><g id="782bpcx55l"><g transform="translate(800 730)"><ellipse cx="64.99999761581421" cy="25" rx="64.99999761581421" ry="25" fill="rgba(255,255,255,1)" stroke="#ee1d24" stroke-width="2" stroke-linecap="round" stroke-linejoin="round"/></g><g transform="translate(823.9999976158142, 745.5) rotate(0, 41, 9.5)" width="82" height="19"><text text-decoration="underline" x="5" fill="rgb(191, 42, 47)" font-weight="bold" font-size="10pt" font-family="Arial"  y="17">CategoryID</text><text text-decoration="none" x="77" fill="#4b4b4b" font-size="10pt" font-family="noto_regular"  y="17"></text></g></g><g id="9qfus07fnu"><g><path d="M 790,795 L 790,787.5 L 807.5,787.5 L 825,787.5 L 825,775" fill="none" stroke="#5e5ca7" stroke-width="1.5" stroke-linecap="round" stroke-linejoin="round"/></g></g><g id="qevl1f4nm6"><g><path d="M 705,935 L 705,890 L 720,890 L 735,890 L 735,845" fill="none" stroke="#5e5ca7" stroke-width="1.5" stroke-linecap="round" stroke-linejoin="round"/></g></g><g id="1xakw4vrm3"><g><path d="M 625.25,835 L 652.61763048172,835 L 652.61763048172,837.5 L 652.61763048172,840 L 680,840" fill="none" stroke="#5e5ca7" stroke-width="1.5" stroke-linecap="round" stroke-linejoin="round"/></g></g><g id="2mgapbqkog"><g><path d="M 805,920 L 805,880 L 810,880 L 815,880 L 815,860 L 815,840 L 795,840" fill="none" stroke="#5e5ca7" stroke-width="1.5" stroke-linecap="round" stroke-linejoin="round"/></g></g><g id="5z78ftghal"><g transform="translate(290 620)"><path d="M 126,31.5 L 63.5,62.9 L 1,31.5 L 63.5,0.3 Z" fill="rgb(232, 248, 250)" stroke="rgb(122, 200, 255)" stroke-width="2" vector-effect="non-scaling-stroke" stroke-dasharray=""/></g><g transform="translate(302.7358490566038, 629.5727848101266) rotate(0, 0, 0)" width="66" height="19"><text text-decoration="none" x="0" fill="#3004987" font-weight="bold" font-size="11pt" font-family="Arial"  y="17">Selects&#160;</text><text text-decoration="none" x="57" fill="#4b4b4b" font-size="10pt" font-family="noto_regular"  y="17"></text></g></g><g id="1imbuog05k"><g><path d="M 290,645 L 245,565" fill="none" stroke="#5e5ca7" stroke-width="1.5" stroke-linecap="round" stroke-linejoin="round"/></g></g><g id="24rimzs9i2"><g><path d="M 390,645 L 375,795" fill="none" stroke="#5e5ca7" stroke-width="1.5" stroke-linecap="round" stroke-linejoin="round"/></g></g><g id="cf22avxrac"><g><path d="M 505,480 L 390,795" fill="none" stroke="#5e5ca7" stroke-width="1.5" stroke-linecap="round" stroke-linejoin="round"/></g></g><g id="2q12eb01rw"><g><path d="M 621.6,880 L 621.6,840 L 680,840" fill="none" stroke="#5e5ca7" stroke-width="1.5" stroke-linecap="round" stroke-linejoin="round"/></g></g><g id="3e3ukez8gp"><g transform="translate(895 840)"><ellipse cx="60.00000238418579" cy="25" rx="60.00000238418579" ry="25" fill="rgba(255,255,255,1)" stroke="#2f3192" stroke-width="1.5" stroke-linecap="round" stroke-linejoin="round"/></g><g transform="translate(908.0000023841858, 847.5) rotate(0, 47, 17.5)" width="94" height="35"><text text-decoration="none" x="4" fill="rgb(0, 0, 0)" font-weight="bold" font-size="10pt" font-family="Arial"  y="14">Autographed&#160;</text><text text-decoration="none" x="28.5" fill="rgb(0, 0, 0)" font-weight="bold" font-size="10pt" font-family="Arial"  y="36">Items</text><text text-decoration="none" x="65.5" fill="#4b4b4b" font-size="10pt" font-family="noto_regular"  y="36"></text></g></g><g id="8s2j4i3fuc"><g><path d="M 795,811 L 905,845" fill="none" stroke="#2f3192" stroke-width="1.5" stroke-linecap="round" stroke-linejoin="round"/></g></g></svg>